<?xml version="1.0" encoding="UTF-8"?>
<svg id="_레이어_1" data-name="레이어 1" xmlns="http://www.w3.org/2000/svg" viewBox="0 0 192.23877 46.80029">
  <path fill="#fff" d="m39.8999,12.84033c0,4.31982-1.68018,7.61035-5.04004,9.86963-3.35986,2.26074-8.24072,3.39014-14.64014,3.39014h-5.09961v10.56006c0,1.52051.09912,2.75049.2998,3.68994.19971.94043.61963,1.6709,1.25977,2.18994.63965.52051,1.52002.86084,2.64014,1.02002,1.11963.16064,2.61963.24023,4.5.24023v2.3999H0v-2.3999c1.31982-.03955,2.3999-.15967,3.23975-.35986.84033-.19971,1.47949-.54004,1.91992-1.02002.43994-.47998.73975-1.15967.90039-2.04004.15918-.87939.23975-2.01953.23975-3.42041V9.24023c0-1.3999-.07031-2.5293-.20996-3.39014-.14062-.85938-.41064-1.53906-.81006-2.04004-.40039-.49951-.97021-.83984-1.70996-1.02002-.74072-.17969-1.70996-.30908-2.91016-.38965V0h20.76025c6.07959,0,10.68018,1.08008,13.7998,3.24023,3.12012,2.16016,4.68018,5.36035,4.68018,9.6001Zm-24.77979,9.65967h3.8999c3.87939,0,6.71973-.77979,8.52002-2.33984,1.7998-1.56006,2.69971-4.02002,2.69971-7.37988,0-3-.76025-5.31934-2.27979-6.95996-1.52051-1.63965-3.8999-2.45996-7.14014-2.45996h-4.62012c-.71973,0-1.07959.34033-1.07959,1.02002v18.11963Z" style="stroke-width: 0px;"/>
  <path fill="#fff" d="m86.33936,27.6001c0,3.40039-.37012,6.31055-1.10986,8.72998-.74072,2.4209-1.89014,4.41016-3.4502,5.97021s-3.56982,2.69971-6.02979,3.41992-5.41016,1.08008-8.8501,1.08008c-6.44043,0-11.15039-1.3501-14.12988-4.05029-2.98047-2.69971-4.47021-7.00928-4.47021-12.92969V13.38037c0-1.56006-.02051-2.86963-.06006-3.93018-.04004-1.05957-.1001-1.9502-.17969-2.66992-.08057-.72021-.19043-1.30957-.33008-1.77002-.14062-.45947-.31055-.84961-.51025-1.16992-.35986-.56006-.87988-.93945-1.55957-1.14014-.68066-.19971-1.7207-.2998-3.12012-.2998V0h21.54004v2.40039c-1.68018,0-2.92041.08984-3.72021.27002-.80078.17969-1.42041.53027-1.85986,1.0498-.28027.3208-.51025.71045-.68994,1.16992-.18018.46045-.3208,1.06055-.41992,1.80029-.10059.74023-.1709,1.6499-.21045,2.72998-.04004,1.07959-.05957,2.3999-.05957,3.95996v15.71973c0,4.56006.96924,7.93018,2.90967,10.10986,1.93994,2.18066,4.92969,3.27002,8.97021,3.27002,8.23975,0,12.35986-4.57959,12.35986-13.73975v-13.85986c0-1.68018-.02979-3.12012-.08984-4.32031-.06006-1.19971-.16064-2.21973-.30029-3.06006-.14062-.83984-.32031-1.53906-.54004-2.09961-.22021-.56006-.49023-1.02002-.80957-1.38037-.56104-.55957-1.28076-.96924-2.16016-1.22998-.88037-.25977-2.1001-.38965-3.66016-.38965V0h19.43994v2.40039c-1.47998,0-2.62012.11035-3.41992.32959-.80029.2207-1.42041.61035-1.85986,1.17041-.3208.35986-.58057.83057-.78027,1.40967-.2002.58057-.35986,1.30029-.47998,2.16016-.11963.86084-.20996,1.89014-.27002,3.08984-.05957,1.2002-.08984,2.64014-.08984,4.32031v12.71973Z" style="stroke-width: 0px;"/>
  <path fill="#fff" d="m95.69873,46.2002v-2.3999c1.35938-.03955,2.44971-.15967,3.27002-.35986.81934-.19971,1.45947-.54004,1.91992-1.02002.45947-.47998.76953-1.15967.93018-2.04004.15918-.87939.23975-2.01953.23975-3.42041V9.24023c0-1.3999-.06006-2.5293-.17969-3.39014-.12012-.85938-.37061-1.53906-.75-2.04004-.38086-.49951-.90039-.83984-1.56006-1.02002-.66016-.17969-1.53027-.30908-2.60986-.38965V0h19.25977c6.03955,0,10.68945.9707,13.9502,2.91016,3.25928,1.94043,4.88965,4.70996,4.88965,8.31006,0,4.76074-3.41992,8.12061-10.25977,10.08008v.23975c2.19922,0,4.18945.31055,5.96973.93018,1.77979.62061,3.29004,1.49072,4.53027,2.60986,1.23926,1.12061,2.19922,2.44043,2.87988,3.95996.67969,1.521,1.02002,3.18018,1.02002,4.97998,0,2.04004-.49023,3.82031-1.47021,5.34033-.98047,1.52051-2.39062,2.80029-4.22998,3.83984-3.56055,2.00049-8.45996,3-14.69971,3h-23.1001Zm18.72021-26.1001c1.7998,0,3.35986-.16943,4.67969-.50977,1.32031-.33936,2.43945-.82959,3.36035-1.47021,1.91992-1.31982,2.87988-3.37939,2.87988-6.17969,0-2.91943-.72021-5.02979-2.16016-6.33008-1.43994-1.29932-3.76025-1.9502-6.95996-1.9502h-4.25977c-.72021,0-1.08008.34033-1.08008,1.02002v15.41992h3.54004Zm4.7998,22.43994c6.43945,0,9.66016-2.89941,9.66016-8.69971,0-3.56006-1.16064-6.15967-3.47998-7.80029-1.2002-.83984-2.75098-1.43994-4.65039-1.7998-1.8999-.35986-4.22998-.54004-6.98975-.54004h-2.87988v12c0,2.48047.63916,4.24023,1.91992,5.27979,1.27979,1.04102,3.41992,1.56006,6.41992,1.56006Z" style="stroke-width: 0px;"/>
  <path fill="#fff" d="m183.53857,12.84033c0,4.31982-1.68018,7.61035-5.04004,9.86963-3.35986,2.26074-8.24072,3.39014-14.64014,3.39014h-5.09961v10.56006c0,1.52051.09912,2.75049.2998,3.68994.19971.94043.61963,1.6709,1.25977,2.18994.63965.52051,1.52002.86084,2.64014,1.02002,1.11963.16064,2.61963.24023,4.5.24023v2.3999h-23.81982v-2.3999c1.31982-.03955,2.3999-.15967,3.23975-.35986.84033-.19971,1.47949-.54004,1.91992-1.02002.43994-.47998.73975-1.15967.90039-2.04004.15918-.87939.23975-2.01953.23975-3.42041V9.24023c0-1.3999-.07031-2.5293-.20996-3.39014-.14062-.85938-.41064-1.53906-.81006-2.04004-.40039-.49951-.97021-.83984-1.70996-1.02002-.74072-.17969-1.70996-.30908-2.91016-.38965V0h20.76025c6.07959,0,10.68018,1.08008,13.7998,3.24023,3.12012,2.16016,4.68018,5.36035,4.68018,9.6001Zm-24.77979,9.65967h3.8999c3.87939,0,6.71973-.77979,8.52002-2.33984,1.7998-1.56006,2.69971-4.02002,2.69971-7.37988,0-3-.76025-5.31934-2.27979-6.95996-1.52051-1.63965-3.8999-2.45996-7.14014-2.45996h-4.62012c-.71973,0-1.07959.34033-1.07959,1.02002v18.11963Z" style="stroke-width: 0px;"/>
  <path fill="#fff" d="m183.11914,42.36035c0-1.27979.4292-2.37012,1.28955-3.27002.85986-.8999,1.92969-1.3501,3.21045-1.3501,1.31982,0,2.41943.4502,3.2998,1.3501.87939.8999,1.31982,1.99023,1.31982,3.27002,0,1.24023-.44043,2.29004-1.31982,3.1499-.88037.85986-1.97998,1.29004-3.2998,1.29004-1.28076,0-2.35059-.43018-3.21045-1.29004-.86035-.85986-1.28955-1.90967-1.28955-3.1499Z" style="stroke-width: 0px;"/>
</svg>